<mxfile host="app.diagrams.net" agent="Mozilla/5.0 (Macintosh; Intel Mac OS X 10_15_7) AppleWebKit/605.1.15 (KHTML, like Gecko) Version/18.1 Safari/605.1.15" version="26.0.4">
  <diagram name="Seite-1" id="K3VxVv3cSCcshRzUT6E_">
    <mxGraphModel dx="1418" dy="754" grid="1" gridSize="10" guides="1" tooltips="1" connect="1" arrows="1" fold="1" page="1" pageScale="1" pageWidth="3300" pageHeight="4681" math="0" shadow="0">
      <root>
        <mxCell id="0" />
        <mxCell id="1" parent="0" />
        <mxCell id="LtZCtQOJ-zAl12phiAsN-28" value="&lt;div&gt;&lt;font style=&quot;font-size: 19px;&quot;&gt;attitudes towards behavior&lt;/font&gt;&lt;/div&gt;&lt;div&gt;&lt;span style=&quot;color: rgb(126, 166, 224);&quot;&gt;&lt;font style=&quot;font-size: 19px;&quot;&gt;(Einstellungen zum Verhalten)&lt;/font&gt;&lt;/span&gt;&lt;br&gt;&lt;/div&gt;" style="rounded=0;whiteSpace=wrap;html=1;" vertex="1" parent="1">
          <mxGeometry x="680" y="200" width="260" height="70" as="geometry" />
        </mxCell>
        <mxCell id="LtZCtQOJ-zAl12phiAsN-56" value="&lt;div&gt;&lt;font style=&quot;font-size: 19px;&quot;&gt;subjective norms&lt;/font&gt;&lt;/div&gt;&lt;div&gt;&lt;font style=&quot;font-size: 19px;&quot;&gt;&lt;span style=&quot;color: rgb(126, 166, 224);&quot;&gt;(Subjetive Normen&lt;/span&gt;&lt;span style=&quot;color: rgb(126, 166, 224);&quot;&gt;)&lt;/span&gt;&lt;/font&gt;&lt;/div&gt;" style="rounded=0;whiteSpace=wrap;html=1;" vertex="1" parent="1">
          <mxGeometry x="680" y="310" width="260" height="70" as="geometry" />
        </mxCell>
        <mxCell id="LtZCtQOJ-zAl12phiAsN-57" value="&lt;div&gt;&lt;span style=&quot;color: rgb(0, 0, 0);&quot;&gt;&lt;font style=&quot;font-size: 19px;&quot;&gt;perceived behavior control - PBC&lt;/font&gt;&lt;/span&gt;&lt;/div&gt;&lt;div&gt;&lt;font style=&quot;font-size: 19px;&quot;&gt;&lt;span style=&quot;color: rgb(126, 166, 224);&quot;&gt;&amp;nbsp;&lt;/span&gt;&lt;span style=&quot;color: rgb(126, 166, 224);&quot;&gt;(Wahrgenommene Verhaltenskontrolle&lt;/span&gt;&lt;span style=&quot;color: rgb(126, 166, 224);&quot;&gt;)&lt;/span&gt;&lt;/font&gt;&lt;br&gt;&lt;/div&gt;" style="rounded=0;whiteSpace=wrap;html=1;" vertex="1" parent="1">
          <mxGeometry x="650" y="440" width="300" height="70" as="geometry" />
        </mxCell>
        <mxCell id="LtZCtQOJ-zAl12phiAsN-58" value="&lt;div&gt;&lt;font style=&quot;font-size: 19px;&quot;&gt;intention&lt;/font&gt;&lt;/div&gt;&lt;div&gt;&lt;font style=&quot;font-size: 19px;&quot;&gt;&lt;span style=&quot;color: rgb(126, 166, 224);&quot;&gt;(Subjetive Normen&lt;/span&gt;&lt;span style=&quot;color: rgb(126, 166, 224);&quot;&gt;)&lt;/span&gt;&lt;/font&gt;&lt;br&gt;&lt;/div&gt;" style="rounded=0;whiteSpace=wrap;html=1;" vertex="1" parent="1">
          <mxGeometry x="1090" y="250" width="260" height="70" as="geometry" />
        </mxCell>
        <mxCell id="LtZCtQOJ-zAl12phiAsN-59" value="&lt;div&gt;&lt;span style=&quot;color: rgb(0, 0, 0);&quot;&gt;&lt;font style=&quot;font-size: 19px;&quot;&gt;behavior&lt;/font&gt;&lt;/span&gt;&lt;/div&gt;&lt;div&gt;&lt;font style=&quot;font-size: 19px;&quot;&gt;&lt;span style=&quot;color: rgb(126, 166, 224);&quot;&gt;(Verhalten&lt;/span&gt;&lt;span style=&quot;color: rgb(126, 166, 224);&quot;&gt;)&lt;/span&gt;&lt;/font&gt;&lt;br&gt;&lt;/div&gt;" style="rounded=0;whiteSpace=wrap;html=1;" vertex="1" parent="1">
          <mxGeometry x="1440" y="250" width="260" height="70" as="geometry" />
        </mxCell>
        <mxCell id="LtZCtQOJ-zAl12phiAsN-60" value="" style="endArrow=classic;html=1;rounded=0;exitX=1;exitY=0.5;exitDx=0;exitDy=0;entryX=0;entryY=0.25;entryDx=0;entryDy=0;" edge="1" parent="1" source="LtZCtQOJ-zAl12phiAsN-28" target="LtZCtQOJ-zAl12phiAsN-58">
          <mxGeometry width="50" height="50" relative="1" as="geometry">
            <mxPoint x="930" y="300" as="sourcePoint" />
            <mxPoint x="980" y="250" as="targetPoint" />
          </mxGeometry>
        </mxCell>
        <mxCell id="LtZCtQOJ-zAl12phiAsN-61" value="" style="endArrow=classic;html=1;rounded=0;exitX=1.005;exitY=0.576;exitDx=0;exitDy=0;exitPerimeter=0;entryX=-0.004;entryY=0.567;entryDx=0;entryDy=0;entryPerimeter=0;" edge="1" parent="1" source="LtZCtQOJ-zAl12phiAsN-56" target="LtZCtQOJ-zAl12phiAsN-58">
          <mxGeometry width="50" height="50" relative="1" as="geometry">
            <mxPoint x="930" y="370" as="sourcePoint" />
            <mxPoint x="980" y="320" as="targetPoint" />
          </mxGeometry>
        </mxCell>
        <mxCell id="LtZCtQOJ-zAl12phiAsN-63" value="" style="endArrow=classic;html=1;rounded=0;entryX=0.5;entryY=1;entryDx=0;entryDy=0;" edge="1" parent="1" target="LtZCtQOJ-zAl12phiAsN-59">
          <mxGeometry width="50" height="50" relative="1" as="geometry">
            <mxPoint x="950" y="470" as="sourcePoint" />
            <mxPoint x="1230" y="330" as="targetPoint" />
          </mxGeometry>
        </mxCell>
        <mxCell id="LtZCtQOJ-zAl12phiAsN-64" value="" style="endArrow=classic;html=1;rounded=0;exitX=0.996;exitY=0.433;exitDx=0;exitDy=0;exitPerimeter=0;" edge="1" parent="1" source="LtZCtQOJ-zAl12phiAsN-58">
          <mxGeometry width="50" height="50" relative="1" as="geometry">
            <mxPoint x="1530" y="300" as="sourcePoint" />
            <mxPoint x="1440" y="280" as="targetPoint" />
          </mxGeometry>
        </mxCell>
        <mxCell id="LtZCtQOJ-zAl12phiAsN-66" value="" style="swimlane;startSize=0;fillColor=#dae8fc;strokeColor=#6C8EBF;strokeWidth=3;" vertex="1" parent="1">
          <mxGeometry x="650" y="170" width="1150" height="230" as="geometry">
            <mxRectangle x="280" y="490" width="50" height="40" as="alternateBounds" />
          </mxGeometry>
        </mxCell>
        <mxCell id="LtZCtQOJ-zAl12phiAsN-70" value="&lt;font style=&quot;font-size: 19px;&quot;&gt;Theory of Reasoned Action (TRA)&lt;/font&gt;" style="text;html=1;align=center;verticalAlign=middle;whiteSpace=wrap;rounded=0;" vertex="1" parent="LtZCtQOJ-zAl12phiAsN-66">
          <mxGeometry x="800" y="10" width="370" height="20" as="geometry" />
        </mxCell>
        <mxCell id="LtZCtQOJ-zAl12phiAsN-71" value="&lt;font style=&quot;font-size: 19px;&quot;&gt;Theory of Planned Behavior (TPB)&lt;/font&gt;&lt;div&gt;&lt;font style=&quot;font-size: 19px;&quot;&gt;(TPB = TRA + PBC)&lt;/font&gt;&lt;/div&gt;" style="text;html=1;align=center;verticalAlign=middle;whiteSpace=wrap;rounded=0;" vertex="1" parent="1">
          <mxGeometry x="1440" y="420" width="370" height="20" as="geometry" />
        </mxCell>
      </root>
    </mxGraphModel>
  </diagram>
</mxfile>
